**ABCDEFGHIJKLMNOPQRSTUVWXYZabcdefghijklmnopqrstuvwxyz**************************
**PARASOLID !"#$%&'()*+,-./:;<=>?@[\]^_`{|}~0123456789**************************
**PART1;
MC=AMD64;
MC_MODEL=Intel64 Family 6 Model 158 Stepping 9, GenuineIntel;
MC_ID=unknown;
OS=Windows_NT;
OS_RELEASE=unknown;
FRU=Parasolid Version 30.0, build 298, 12-15-2017;
APPL=SOLIDWORKS 2018-2018134;
SITE=;
USER=unknown;
FORMAT=text;
GUISE=transmit;
KEY=03279-256-01_180704;
FILE=03279-256-01_180704.x_t;
DATE=Wed Jul  4 12:47:36 2018;
**PART2;
SCH=SCH_3000298_30000;
USFLD_SIZE=0;
**PART3;
**END_OF_HEADER*****************************************************************
T51 : TRANSMIT FILE created by modeller version 300029823 SCH_3000298_30000_1300
6205 0 12 33 CCCCCCI4 mesh1006 0 I8 polyline1008 0 CCCCCCCDI5 owner1040 0 CCCCCC
I13 boundary_mesh1006 0 I17 boundary_polyline1008 0 CCCA16 index_map_offset0 0 1
 dA9 index_map82 0 A17 node_id_index_map82 0 A20 schema_embedding_map82 0 A5 chi
ld12 0 A14 lowest_node_id0 0 1 dZ1 605 2 3 4 0 0 0 0 0 1e3 1e-8 0 5 0 1 0 1 1 6
 7 8 9 0 0 10 11 12 0 0 0 0 0 0 81 255 2 2 497 13 1 0 0 0 0 14 0 70 11 CI9 list_
type0 0 1 uI10 notransmit0 0 1 lCCCDCCDI12 finger_index0 0 1 dI12 finger_block10
12 0 CZ3 0 4 T1 0 0 3 20 1 15 15 50 255 4 163 0 1 16 0 0 +0 .003 0 0 1 0 0 0 1 1
3 255 6 29 0 1 0 17 0 0 18 0 51 255 7 28 0 19 20 0 0 -0 .0203 0 0 -1 0 .0025 0 0
 -1 30 255 8 233 0 11 21 0 0 +0 .0203 -.002 1 0 0 29 255 9 263 0 12 22 0 -.0015
 0 -.002 19 8 CCCCCCCA5 owner12 0 Z10 7 0 1 18 0 23 V0 16 255 11 231 0 ?24 0 25
 8 0 0 1 18 255 12 261 0 26 0 27 9 ?1 17 255 26 0 28 29 30 12 31 32 0 33 +18 27
 259 0 34 12 35 22 ?1 17 34 0 36 33 33 27 37 38 0 29 +18 35 244 0 39 27 40 41 ?1
 29 22 260 0 27 41 9 .0015 0 -.002 29 41 246 0 35 42 22 -.003464101615137755 .01
5 -.002 29 42 243 0 40 43 41 .003464101615137755 .015 -.002 18 40 242 0 44 35 45
 42 ?1 29 43 241 0 45 46 42 -.0015 .015 -.002 18 45 239 0 47 40 48 43 ?1 29 46 2
38 0 48 49 43 .0015 .015 -.002 18 48 237 0 50 45 51 46 ?1 29 49 230 0 51 52 46 -
.003464101615137755 .0203 -.002 18 51 228 0 53 48 54 49 ?1 29 52 329 0 54 0 49 .
003464101615137755 .0203 -.002 18 54 291 0 55 51 0 52 ?1 17 55 0 56 53 53 54 57
 58 0 59 +15 255 56 232 0 53 60 61 17 53 0 56 55 55 51 24 11 0 57 -17 57 0 62 39
 59 51 55 58 0 63 -16 58 229 0 ?55 64 65 66 0 0 1 17 59 0 62 57 67 54 68 69 0 24
 -15 62 255 0 59 70 0 17 67 0 62 59 39 40 71 64 0 68 +17 68 0 72 73 24 40 59 69
 0 0 +16 69 275 0 ?68 74 75 76 0 0 1 17 24 0 72 68 63 54 53 11 0 0 +15 72 304 0
 77 78 0 17 63 0 72 24 77 51 39 74 0 0 -17 77 0 72 63 31 35 47 79 0 0 -17 39 0 6
2 67 57 35 63 74 0 71 +16 74 278 0 ?39 80 69 81 0 0 1 16 80 286 0 ?44 82 74 83 7
9 79 1 30 81 321 0 74 84 76 0 +-.003464101615137755 .0747247956102965 -.002 0 -1
 0 31 255 84 468 0 75 85 81 0 -0 .003 0 0 1 0 0 0 1 .001 30 76 320 0 69 81 83 0
 +.003464101615137755 .0747247956102965 -.002 0 -1 0 30 83 319 0 80 76 86 0 +0 .
015 -.002 1 0 0 30 86 318 0 82 83 87 0 -.0015 .0203 -.002 0 -1 0 16 82 285 0 ?50
 38 80 86 0 0 1 30 87 317 0 38 86 88 0 +0 0 -.002 1 0 0 16 38 284 0 ?34 32 82 87
 0 0 1 30 88 316 0 32 87 89 0 +-.0015 .0203 -.002 0 -1 0 16 32 283 0 ?26 79 38 8
8 0 0 1 31 89 149 0 65 88 90 0 +0 0 0 0 1 0 0 0 1 75e-5 16 65 126 0 ?91 58 92 89
 0 0 1 31 90 93 0 64 89 66 0 +0 .015 0 0 1 0 0 0 1 .004 16 64 245 0 ?67 93 58 90
 0 0 1 31 66 92 0 58 90 94 0 +0 .0203 0 0 1 0 0 0 1 .004 31 94 23 0 93 66 95 0 +
0 0 0 0 1 0 0 0 1 .0025 16 93 262 0 ?29 25 64 94 0 0 1 31 95 55 0 25 94 21 0 +0
 .015 0 0 1 0 0 0 1 .0025 16 25 240 0 ?96 11 93 95 0 0 1 31 21 167 0 92 95 8 0 -
0 .003 0 0 1 0 0 0 1 75e-5 16 92 183 0 ?97 65 79 21 0 0 1 17 97 0 98 97 97 0 99
 92 0 0 +16 79 282 0 ?47 92 32 83 80 80 1 17 47 0 100 96 71 45 77 79 0 30 +15 10
0 80 0 71 101 0 17 96 0 100 44 47 48 30 25 0 73 +17 71 0 100 47 44 35 67 64 0 77
 -17 30 0 28 26 50 45 96 25 0 31 -15 28 26 0 30 19 0 17 50 0 28 30 29 48 102 82
 0 96 +17 31 0 72 77 37 45 26 32 0 0 -17 37 0 72 31 102 12 34 38 0 0 -17 102 0 7
2 37 73 27 50 82 0 0 -17 73 0 72 102 68 48 44 80 0 0 -17 44 0 100 71 96 40 73 80
 0 67 +17 29 0 28 50 26 27 33 93 0 102 +17 33 0 36 34 34 12 29 93 0 37 -15 36 17
 0 33 103 0 14 255 103 16 104 ?70 19 105 6 20 -0 0 70 19 23 81 1 104 597 106 103
 107 0 0 108 109 14 70 73 108 ?101 103 62 6 110 +0 0 101 103 23 14 19 56 111 ?10
3 112 28 6 7 -0 0 103 112 23 15 105 120 0 91 103 36 50 20 22 0 103 113 7 0 +0 0
 0 0 1 0 0 0 1 13 23 8 0 0 0 0 0 0 10 17 14 17 430 114 ?112 0 98 6 115 +0 0 112
 0 23 81 1 114 600 106 17 116 0 111 117 118 14 112 168 117 ?19 17 119 6 120 -0 0
 19 17 23 15 98 191 0 97 17 121 50 115 207 0 17 122 120 0 +0 .003 0 0 1 0 0 0 1
 50 122 315 0 78 123 115 0 +.003464101615137755 .0747247956102965 -.002 0 0 1 1
 0 0 51 120 145 0 112 115 124 0 +0 0 0 0 1 0 75e-5 0 0 1 50 124 90 0 101 120 110
 0 +0 .015 0 0 1 0 0 0 1 14 101 78 125 ?60 70 100 6 124 -0 0 60 70 23 51 110 88
 0 70 124 113 0 +0 .015 0 0 1 0 .004 0 0 1 50 113 2 0 60 110 20 0 +0 .0203 0 0 1
 0 0 0 1 14 60 1 126 ?78 101 56 6 113 +0 0 78 101 23 81 1 126 603 106 60 127 0 1
25 128 129 14 78 302 128 ?130 60 72 6 122 -0 0 130 60 23 81 1 128 604 106 78 131
 0 126 132 133 14 130 451 132 ?0 78 134 6 123 -0 0 0 78 23 81 1 132 605 106 130
 135 0 128 0 136 15 134 454 0 137 130 138 51 123 466 0 130 0 122 0 +0 -.00081837
6618407359 0 0 1 0 .001 0 0 1 17 137 0 134 137 137 0 139 75 0 0 +15 138 455 0 14
0 130 0 17 140 0 138 140 140 0 141 142 0 0 +17 141 0 61 141 141 0 140 142 0 0 -1
6 142 438 0 ?140 75 0 85 0 0 1 16 75 437 0 ?137 69 142 84 0 0 1 31 85 470 0 142
 0 84 0 +0 .0203 0 0 1 0 0 0 1 .001 15 61 449 0 141 60 0 17 139 0 121 139 139 0
 137 75 0 0 -15 121 427 0 139 17 0 80 255 1 106 143 144 9000 1 1 1 1 1 1 1 1 0 F
FFFTFTFFFFFFF1 81 1 135 574 145 130 0 132 127 0 146 82 255 1 136 -52362932 80 1
 145 0 147 8001 0 0 0 0 3 5 0 0 0 FFFFTFTFFFFFFF2 81 1 127 573 145 60 0 126 116
 135 148 83 255 3 146 .752941176470588 .752941176470588 1 81 1 116 431 145 17 0
 114 131 127 149 83 3 148 .752941176470588 .752941176470588 1 81 1 131 424 145 7
8 0 128 150 116 151 83 3 149 .752941176470588 .752941176470588 1 81 1 150 420 14
5 101 0 125 152 131 153 83 3 151 .752941176470588 .752941176470588 1 81 1 125 60
2 106 101 150 0 117 126 154 81 1 152 419 145 70 0 108 107 150 155 83 3 153 .7529
41176470588 .752941176470588 1 81 1 108 598 106 70 152 0 104 111 156 81 1 107 41
8 145 103 0 104 157 152 158 83 3 155 .752941176470588 .752941176470588 1 81 1 15
7 417 145 19 0 111 159 107 160 83 3 158 .752941176470588 .752941176470588 1 81 1
 111 599 106 19 157 0 108 114 161 81 1 159 416 145 112 0 117 0 157 162 83 3 160
 .752941176470588 .752941176470588 1 81 1 117 601 106 112 159 0 114 125 163 83 3
 162 .752941176470588 .752941176470588 1 82 1 163 461504838 82 1 161 300548424 8
2 1 156 301072712 82 1 154 300941640 79 255 15 147 SDL/TYSA_COLOUR79 14 144 SWEn
tUnchanged82 1 133 480837960 82 1 129 -1640300212 15 119 135 0 164 112 165 17 16
4 0 119 164 164 0 91 65 0 0 -15 165 166 0 99 112 0 17 99 0 165 99 99 0 97 92 0 0
 -17 91 0 105 91 91 0 164 65 0 0 +82 1 118 -35126964 82 1 109 301334856 19 18 30
 0 1 0 10 6 S0 50 16 161 0 1 166 4 0 +0 .003 0 0 1 0 0 0 1 50 166 160 0 1 167 16
 0 +0 .003 0 0 1 0 0 0 1 50 167 159 0 1 0 166 0 +0 .003 0 0 1 0 0 0 1 74 4 CI16
 index_map_offset0 0 1 dCCZ20 15 3 0 0 132 135 2 0 0 0 0 0 0 0 0 0 0 0 0 0 0 0 0
 0 80 2 13 168 169 8004 0 0 0 0 3 5 0 0 0 FFTFFFFFFFFFFF2 3 83 1 14 79e2 79 16 1
69 SDL/TYSA_DENSITY1 0 
