**ABCDEFGHIJKLMNOPQRSTUVWXYZabcdefghijklmnopqrstuvwxyz**************************
**PARASOLID !"#$%&'()*+,-./:;<=>?@[\]^_`{|}~0123456789**************************
**PART1;
MC=AMD64;
MC_MODEL=Intel64 Family 6 Model 44 Stepping 2, GenuineIntel;
MC_ID=unknown;
OS=Windows_NT;
OS_RELEASE=unknown;
FRU=Parasolid Version 25.1, build 229,  2- 4-2014;
APPL=SolidWorks 2014-2014089;
SITE=;
USER=unknown;
FORMAT=text;
GUISE=transmit;
KEY=03279-229-01_140513;
FILE=03279-229-01_140513.x_t;
DATE=Tue May 13 10:48:26 2014;
**PART2;
SCH=SCH_2501229_25001;
USFLD_SIZE=0;
**PART3;
**END_OF_HEADER*****************************************************************
T51 : TRANSMIT FILE created by modeller version 250122923 SCH_2501229_25001_1300
6189 0 12 29 CCCCCCCCCCCCCDI5 owner1040 0 CCCCCCCCCA16 index_map_offset0 0 1 dA9
 index_map82 0 A17 node_id_index_map82 0 A20 schema_embedding_map82 0 A5 child12
 0 A14 lowest_node_id0 0 1 dZ1 1202 2 3 0 0 0 0 1e3 1e-8 0 4 0 1 0 1 1 5 6 7 8 9
 10 11 0 0 0 0 0 0 81 255 2 2 1050 12 1 13 0 0 0 14 0 70 11 CI9 list_type0 0 1 u
I10 notransmit0 0 1 lCCCDCCDI12 finger_index0 0 1 dI12 finger_block1012 0 CZ3 0
 4 T1 0 0 4 20 1 15 15 13 255 5 47 0 1 0 16 0 0 17 0 52 255 6 94 0 18 19 0 20 -6
86950496486816e-34 .0198 0 -3469446951953615e-33 -1 0 79e-5 .0174524064372768 .9
99847695156391 1 -3469446951953615e-33 0 38 255 7 256 0 10 21 0 0 +22 23 24 25 2
6 29 255 8 901 0 11 27 0 79e-5 .0198 0 19 8 CCCCCCCA5 owner12 0 Z9 51 0 1 17 0 2
8 V0 16 255 10 254 0 ?29 0 30 7 0 0 1 18 255 11 899 0 31 0 32 8 ?1 17 255 31 0 3
3 34 35 11 36 37 0 38 -18 32 191 0 39 11 40 27 ?1 17 39 0 41 42 43 32 44 45 0 46
 +18 40 496 0 47 32 48 49 ?1 29 27 193 0 32 49 8 .000793405315614618 .0203 -.000
163119603832491 29 49 838 0 40 50 27 .000793405315614618 .01865420076738435 .000
1631196038324915 29 50 839 0 48 51 49 .0001631196038324915 .0186542007673844 .00
0793405315614618 18 48 500 0 52 40 53 50 ?1 29 51 840 0 53 54 50 340888440560987
e-33 .0198 79e-5 18 53 505 0 55 48 56 51 ?1 29 54 841 0 56 57 51 751826980627125
e-19 .02003071987358475 .000795684754521963 18 56 546 0 58 53 59 54 ?1 29 57 842
 0 59 60 54 751826980627125e-19 .01927128269199895 .000795684754521963 18 59 502
 0 61 56 62 57 ?1 29 60 843 0 62 63 57 -751826980627118e-19 .0200307198735848 .0
00795684754521963 18 62 547 0 64 59 65 60 ?1 29 63 844 0 65 66 60 -7518269806271
18e-19 .0192712826917896 .000795684754521963 18 65 506 0 67 62 68 63 ?1 29 66 84
5 0 68 69 63 -.000163119603832491 .01865420076738435 .000793405315614618 18 68 5
09 0 70 65 71 66 ?1 29 69 846 0 71 72 66 -.000793405315614617 .01865420076738435
 .0001631196038324915 18 71 512 0 73 68 74 69 ?1 29 72 847 0 74 75 69 -79e-5 .01
98 -3315603604371175e-34 18 74 517 0 76 71 77 72 ?1 29 75 848 0 77 78 72 -.00079
5684754521963 .02003071987358475 751826980627122e-19 18 77 549 0 79 74 80 75 ?1
 29 78 849 0 80 81 75 -.000795684754521963 .01927128269199895 751826980627122e-1
9 18 80 514 0 82 77 83 78 ?1 29 81 850 0 83 84 78 -.000795684754521963 .02003071
98735848 -75182698062712e-18 18 83 550 0 85 80 86 81 ?1 29 84 851 0 86 87 81 -.0
00795684754521963 .01927128269178955 -75182698062712e-18 18 86 518 0 88 83 89 84
 ?1 29 87 852 0 89 90 84 -.000793405315614617 .01865420076738435 -.0001631196038
324915 18 89 521 0 91 86 92 87 ?1 29 90 853 0 92 93 87 -.000163119603832491 .018
6542007673844 -.000793405315614618 18 92 524 0 94 89 95 90 ?1 29 93 854 0 95 96
 90 177683707374451e-33 .0198 -79e-5 18 95 529 0 97 92 98 93 ?1 29 96 855 0 98 9
9 93 -751826980627118e-19 .02003071987358475 -.000795684754521963 18 98 552 0 10
0 95 101 96 ?1 29 99 856 0 101 102 96 -751826980627118e-19 .01927128269199895 -.
000795684754521963 18 101 526 0 103 98 104 99 ?1 29 102 857 0 104 105 99 7518269
80627121e-19 .0200307198735848 -.000795684754521963 18 104 553 0 106 101 107 102
 ?1 29 105 858 0 107 108 102 751826980627121e-19 .0192712826917896 -.00079568475
4521963 18 107 530 0 109 104 110 105 ?1 29 108 859 0 110 111 105 .00016311960383
24915 .01865420076738435 -.000793405315614618 18 110 533 0 112 107 113 108 ?1 29
 111 860 0 113 114 108 .000793405315614618 .0186542007673844 -.00016311960383249
1 18 113 536 0 43 110 115 111 ?1 29 114 862 0 115 116 111 .000795684754521964 .0
200307198735848 -751826980627121e-19 18 115 555 0 36 113 117 114 ?1 29 116 863 0
 117 118 114 .000795684754521964 .01927128269199895 -751826980627121e-19 18 117
 538 0 119 115 120 116 ?1 29 118 864 0 120 121 116 .000795684754521964 .02003071
98735848 751826980627123e-19 18 120 498 0 122 117 123 118 ?1 29 121 865 0 123 12
4 118 .000795684754521964 .01927128269179475 751826980627123e-19 18 123 544 0 12
5 120 126 121 ?1 29 124 866 0 126 127 121 .000793405315614618 .0203 .00016311960
38324915 18 126 545 0 128 123 129 124 ?1 29 127 867 0 129 130 124 .0001631196038
324915 .0203 .000793405315614618 18 129 504 0 29 126 131 127 ?1 29 130 870 0 131
 132 127 -.000163119603832491 .0203 .000793405315614618 18 131 548 0 133 129 134
 130 ?1 29 132 871 0 134 135 130 -.000793405315614617 .0203 .0001631196038324915
 18 134 516 0 136 131 137 132 ?1 29 135 874 0 137 138 132 -.000793405315614617 .
0203 -.0001631196038324915 18 137 551 0 139 134 140 135 ?1 29 138 875 0 140 141
 135 -.000163119603832491 .0203 -.000793405315614618 18 140 528 0 142 137 143 13
8 ?1 29 141 878 0 143 0 138 .0001631196038324915 .0203 -.000793405315614618 18 1
43 554 0 144 140 0 141 ?1 17 144 0 145 106 112 143 146 147 0 42 +15 255 145 735
 0 112 148 0 17 106 0 145 149 144 104 150 151 0 152 +17 112 0 145 144 149 110 15
3 154 0 146 +17 146 0 41 43 42 110 144 147 0 155 -16 147 446 0 ?144 156 45 157 0
 0 1 17 42 0 41 146 39 143 158 159 0 150 +15 41 739 0 43 160 0 17 158 0 161 162
 163 32 42 159 0 0 -16 159 457 0 ?42 164 0 165 0 0 1 17 150 0 166 167 168 143 10
6 151 0 163 -15 166 221 0 169 170 0 17 167 0 166 169 150 140 163 171 0 172 -17 1
68 0 166 150 173 104 174 175 0 0 -16 151 209 0 ?106 175 176 177 0 0 1 17 163 0 1
61 158 172 143 167 171 0 0 +15 161 131 0 178 179 180 17 172 0 161 163 181 140 18
2 164 0 0 -16 171 186 0 ?163 183 184 185 183 184 1 16 183 180 0 ?181 186 171 185
 186 171 1 16 184 192 0 ?162 171 187 185 171 188 1 31 255 185 96 0 188 189 190 0
 +704297731246584e-34 .0203 0 -3469446951953615e-33 -1 0 1 -3469446951953615e-33
 0 81e-5 16 188 55 0 ?178 191 186 185 184 186 1 38 189 774 0 187 192 185 0 +6 19
3 194 195 196 31 190 97 0 191 185 197 0 +704297731246584e-34 .0203 0 -3469446951
953615e-33 -1 0 1 -3469446951953615e-33 0 .0025 16 191 60 0 ?198 199 188 190 0 0
 1 31 197 98 0 199 190 200 0 +1734723475976805e-35 .005 0 -3469446951953615e-33
 -1 0 1 -3469446951953615e-33 0 .0025 16 199 65 0 ?201 202 191 197 0 0 1 31 200
 99 0 202 197 203 0 +1734723475976805e-35 .005 0 -3469446951953615e-33 -1 0 1 -3
469446951953615e-33 0 .004 16 202 70 0 ?204 205 199 200 0 0 1 31 203 100 0 205 2
00 206 0 +481482486096809e-52 1387778780781446e-35 0 -3469446951953615e-33 -1 0
 1 -3469446951953615e-33 0 .004 16 205 75 0 ?207 208 202 203 0 0 1 31 206 101 0
 208 203 209 0 +13669411588437e-51 393993964390776e-35 0 -3469446951953615e-33 -
1 0 1 -3469446951953615e-33 0 .001135610285578574 16 208 80 0 ?210 37 205 206 0
 0 1 38 209 197 0 37 206 211 0 +22 212 213 214 215 16 37 195 0 ?36 216 208 209 2
16 216 1 38 211 202 0 217 209 218 0 +22 219 220 221 222 52 22 88 0 223 193 224 2
25 -704297731246584e-34 .0203 0 3469446951953615e-33 1 0 81e-5 .0399680383488716
5 .999200958721789 -1 3469446951953615e-33 0 51 255 212 757 0 226 219 193 227 -.
00129 0 1579794370900085e-34 3469446951953615e-33 1 0 5e-4 -1 3469446951953615e-
33 0 40 255 13 213 0 1 13 1807748024194995e-20 .3731024541163185 ??.000795715214
847972 .02003194895255105 753826980627123e-19 .000792682169591799 .0199091917878
542 517201658745768e-19 .000791202357035118 .0198490227213145 3465416818636735e-
20 .000790496568107225 .0198202609004763 2227827478391535e-20 .00079017934563995
5 .01980732003193825 1339079815019092e-20 .000790076919922169 .0198031398358463
 877006302686479e-20 .000790009648799193 .01980039388692535 310623664488836e-20
 .000790001222624802 .01980004991088615 -1105723024311858e-21 .00079002698786917
8 .01980110168924885 -519491490140761e-20 .000790111841175345 .0198045651406262
 -105749074178661e-19 .000790347648132422 .0198141868695257 -1864208339212095e-2
0 .000791414086225043 .0198576428188178 -3757774060652125e-20 .00079571521484797
2 .02003194895255105 -753826980627118e-19 41 255 1 214 L.000795715214847972 .020
03194895255105 753826980627123e-19 41 1 215 L.000795715214847972 .02003194895255
105 -753826980627118e-19 14 255 226 744 228 ?0 229 230 5 212 -231 231 0 229 28 5
1 219 758 0 232 233 212 234 +.000548527131782945 0 -.000112774047094068 34694469
51953615e-33 1 0 25e-5 -1 3469446951953615e-33 0 51 193 756 0 235 212 22 236 +.0
00548527131782945 0 .000112774047094068 3469446951953615e-33 1 0 25e-5 -1 346944
6951953615e-33 0 141 255 227 209 237 237 212 141 237 238 227 227 212 38 238 789
 0 239 240 241 0 +6 212 242 243 244 16 239 428 0 ?125 245 246 238 245 245 1 30 2
55 240 790 0 247 248 238 0 +.000795684754521964 0 751826980627123e-19 3469446951
953615e-33 1 0 38 241 788 0 249 238 250 0 +6 219 251 252 253 40 17 242 -.0010339
28999796832 .999509593970653 17 551633349923562e-19 .347746358806133 ??.00080713
0868002909 .0182248277675761 -.0001297590126518244 .000795830460169361 .01925781
138826535 -761345250433392e-19 .000790577418846909 .0197460149920656 -2402260260
42516e-19 .000790260104938489 .01977567386848115 -1612567158020905e-20 .00079010
773562563 .01978992251545955 -1037901819378012e-20 .000790038515892572 .01979639
70035789 -620599783267842e-20 .000790017784714432 .0197983362806632 -42171556281
0918e-20 .000790003142976931 .01979970597725145 -177284151942897e-20 .0007900000
05096187 .0197999995232546 713881360462428e-22 .00079000364759833 .0197996587705
38 1909865185003805e-21 .000790017144443666 .0197983961754669 414054948695557e-2
0 .000790054236547561 .01979492648620425 736434694712444e-20 .000790212634714188
 .01978011251289735 145804492683128e-19 .000791040758260875 .01970274215623455 3
224399297725465e-20 .000794411242824379 .019389195128492 662705346373751e-19 .00
0795830460169359 .01925781138827125 761345251165062e-19 .000806753057837249 .018
2589954376694 .0001283448203240086 41 1 243 L.000807130868002909 .01822482776757
61 -.0001297590126518244 41 1 244 L.000806753057837249 .0182589954376694 .000128
344820323894 16 249 421 0 ?119 254 245 241 0 0 1 31 250 787 0 254 241 255 0 +647
197599935325e-34 .01865420076738435 0 -3469446951953615e-33 -1 0 1 -346944695195
3615e-33 0 81e-5 40 8 251 0 1 8 169520502792544e-19 .3419514953250405 ??.0007932
72928831471 .0186542345705438 -.00016375928836134 .000793710020083776 .018654387
6670772 -.000161614105288777 .000794176855618496 .01865545931634495 -.0001592090
89675688 .000794770949257334 .0186584230132664 -.000155947909043633 .00079586095
5616462 .0186700560024831 -.0001491880497292506 .000797733884961695 .01872917508
62665 -.0001326736493540602 .000798211193416091 .01897062043546675 -.00010020943
94051808 .000795586614646732 .01928031346518205 -745430135338374e-19 41 1 252 L.
000793272928831471 .0186542345705438 -.00016375928836134 41 1 253 L.000795586614
646732 .01928031346518205 -745430135338374e-19 16 254 416 0 ?43 154 249 250 0 0
 1 38 255 786 0 154 250 256 0 +6 257 258 259 260 16 154 409 0 ?112 261 254 255 0
 0 1 38 256 785 0 261 255 262 0 +6 263 264 265 266 51 257 760 0 148 263 233 267
 +.000112774047094068 0 -.000548527131782945 3469446951953615e-33 1 0 25e-5 -1 3
469446951953615e-33 0 40 12 258 0 1 12 2968569770635825e-20 .326792002052257 ??7
45430135338631e-19 .01928031346518205 -.000795586614646726 .0001232024939082264
 .01878250382975285 -.000798309532077771 .0001307138928283076 .01873905317054135
 -.000797882624874699 .0001368986815760584 .0187099371355259 -.00079736041334132
2 .000142015956527173 .0186904135655554 -.000796811063512895 .000146281429595274
6 .01867731684171235 -.000796271466399284 .0001498759397247918 .0186685357291442
 -.000795758702533801 .000153992211862557 .0186610297539536 -.000795105847192686
 .000157602005181022 .01865670314597555 -.000794475203891174 .000160008765684051
 .01865499772455235 -.000794024344326706 .000162254448655341 .0186542625213941 -
.000793581594836315 .0001637592883613405 .0186542345705438 -.000793272928831471
 41 1 259 L745430135338631e-19 .01928031346518205 -.000795586614646726 41 1 260
 L.0001637592883613405 .0186542345705438 -.000793272928831471 14 148 732 268 ?26
9 232 145 5 257 -0 0 269 232 28 51 263 761 0 269 270 257 271 -1579794370900085e-
34 0 -.00129 3469446951953615e-33 1 0 5e-4 -1 3469446951953615e-33 0 51 233 759
 0 160 257 219 0 +0 0 0 3469446951953615e-33 1 0 81e-5 -1 3469446951953615e-33 0
 141 267 177 272 272 257 38 177 211 0 151 218 273 0 +22 257 274 275 276 141 272
 255 267 267 257 38 218 205 0 176 211 177 0 +22 193 277 278 279 38 273 214 0 175
 177 280 0 +22 263 281 282 283 40 6 274 0 1 6 3058406203714665e-20 .349524689050
7325 ??.0001633196038324915 .02029999855859555 -.000793364111616472 .00015818058
91870355 .02029912463061 -.000794369044269729 .000152251478638771 .0202957802998
26 -.000795390519916091 .0001437306805012108 .0202866469886374 -.000796603101695
583 .0001247298973342676 .02024818021752645 -.000798241083427398 749826980630189
e-19 .02002949096879435 -.000795654252792383 41 1 275 L.0001633196038324915 .020
29999855859555 -.000793364111616472 41 1 276 L749826980630189e-19 .0200294909687
9435 -.000795654252792383 16 175 212 0 ?174 284 151 273 284 284 1 38 280 222 0 2
85 273 286 0 +22 270 287 288 289 40 13 281 0 1 13 1807748024194805e-20 .37310245
4116412 ??753826980627126e-19 .02003194895255105 -.000795715214847972 5172016587
45756e-19 .0199091917878542 -.000792682169591799 346541681863668e-19 .0198490227
213145 -.000791202357035118 2227827478391295e-20 .01982026090047625 -.0007904965
68107225 1339079815018738e-20 .01980732003193825 -.000790179345639955 8770063026
86489e-20 .0198031398358463 -.000790076919922169 3106236644887235e-21 .019800393
88692535 -.000790009648799193 -110572302431264e-20 .0198000499108861 -.000790001
222624802 -519491490140873e-20 .01980110168924885 -.000790026987869177 -10574907
41786682e-20 .0198045651406262 -.000790111841175344 -1864208339212195e-20 .01981
41868695257 -.000790347648132422 -375777406065231e-19 .0198576428188178 -.000791
414086225043 -75382698062712e-18 .02003194895255105 -.000795715214847972 41 1 28
2 L753826980627126e-19 .02003194895255105 -.000795715214847972 41 1 283 L-753826
98062712e-18 .02003194895255105 -.000795715214847972 16 285 220 0 ?142 290 284 2
80 0 0 1 38 286 228 0 290 280 291 0 +22 292 293 294 295 51 270 762 0 296 297 263
 298 +-.000112774047094068 0 -.000548527131782945 3469446951953615e-33 1 0 25e-5
 -1 3469446951953615e-33 0 40 7 287 0 1 7 590250130460806e-19 .3279582857148995
 ??-749826980630198e-19 .02002949096879435 -.000795654252792384 -.00013546702841
82442 .0202729709169109 -.000797495058631945 -.0001423798264661704 .020284734398
26945 -.000796767937912337 -.0001513560389750025 .02029505949006855 -.0007955320
50564942 -.0001567013107462645 .02029852344132155 -.000794637666925248 -.0001617
400168620695 .0202999315060952 -.000793684905079432 -.0001633196038324915 .02029
999855859555 -.000793364111616472 41 1 288 L-749826980630198e-19 .02002949096879
435 -.000795654252792384 41 1 289 L-.0001633196038324915 .02029999855859555 -.00
0793364111616472 14 296 724 299 ?300 301 302 5 270 -0 0 300 301 28 51 297 763 0
 301 292 270 0 +0 0 0 3469446951953615e-33 1 0 81e-5 -1 3469446951953615e-33 0 1
41 298 280 303 303 270 141 303 262 298 298 270 38 262 784 0 304 256 305 0 +6 270
 306 307 308 16 304 393 0 ?103 309 310 262 0 0 1 31 305 783 0 309 262 311 0 +647
197599935325e-34 .01865420076738435 0 -3469446951953615e-33 -1 0 1 -346944695195
3615e-33 0 81e-5 40 8 306 0 1 8 169520502792504e-19 .341951495325006 ??-.0001637
5928836134 .0186542345705438 -.000793272928831471 -.0001616141052887775 .0186543
876670772 -.000793710020083776 -.00015920908967569 .01865545931634495 -.00079417
6855618496 -.0001559479090436345 .0186584230132664 -.000794770949257334 -.000149
188049729253 .0186700560024831 -.000795860955616461 -.000132673649354067 .018729
17508626645 -.000797733884961694 -.0001002094394051934 .01897062043546665 -.0007
98211193416092 -745430135338371e-19 .01928031346518205 -.000795586614646731 41 1
 307 L-.00016375928836134 .0186542345705438 -.000793272928831471 41 1 308 L-7454
30135338371e-19 .01928031346518205 -.000795586614646731 16 309 388 0 ?94 312 304
 305 0 0 1 38 311 782 0 312 305 313 0 +6 292 314 315 316 16 312 381 0 ?91 317 30
9 311 0 0 1 38 313 781 0 317 311 318 0 +6 319 320 321 322 51 292 764 0 300 319 2
97 323 +-.000548527131782945 0 -.000112774047094068 3469446951953615e-33 1 0 25e
-5 -1 3469446951953615e-33 0 40 12 314 0 1 12 296856977063589e-19 .3267920020525
305 ??-.000795586614646726 .01928031346518205 -745430135338631e-19 -.00079830953
2077771 .0187825038297528 -.0001232024939082266 -.0007978826248747 .018739053170
5414 -.0001307138928282966 -.000797360413341323 .01870993713552595 -.00013689868
15760442 -.000796811063512896 .0186904135655554 -.000142015956527163 -.000796271
466399285 .0186773168417124 -.0001462814295952664 -.000795758702533801 .01866853
57291442 -.0001498759397247882 -.000795105847192688 .0186610297539536 -.00015399
2211862547 -.000794475203891176 .01865670314597555 -.000157602005181012 -.000794
024344326708 .01865499772455235 -.00016000876568404 -.000793581594836316 .018654
2625213941 -.0001622544486553335 -.000793272928831471 .0186542345705438 -.000163
7592883613395 41 1 315 L-.000795586614646726 .01928031346518205 -745430135338631
e-19 41 1 316 L-.000793272928831471 .0186542345705438 -.0001637592883613395 14 3
00 716 324 ?325 296 326 5 292 -0 0 325 296 28 51 319 765 0 325 327 292 328 --.00
129 0 1521699433126855e-34 3469446951953615e-33 1 0 5e-4 -1 3469446951953615e-33
 0 141 323 286 329 329 292 141 329 311 323 323 292 14 325 712 330 ?331 300 332 5
 319 -331 331 331 300 28 51 327 766 0 333 334 319 335 +-.000548527131782945 0 .0
00112774047094068 3469446951953615e-33 1 0 25e-5 -1 3469446951953615e-33 0 141 3
28 291 336 336 319 38 291 231 0 337 286 338 0 +22 319 339 340 341 141 336 313 32
8 328 319 16 337 229 0 ?342 343 290 291 343 343 1 38 338 239 0 344 291 345 0 +22
 327 346 347 348 40 13 339 0 1 13 180774802419816e-19 .3731024541163615 ??-.0007
95715214847972 .02003194895255105 -753826980627128e-19 -.000792682169591799 .019
9091917878542 -517201658745764e-19 -.000791202357035118 .0198490227213145 -34654
168186368e-18 -.000790496568107225 .01982026090047625 -2227827478391545e-20 -.00
0790179345639955 .01980732003193825 -1339079815019212e-20 -.000790076919922169 .
0198031398358463 -877006302686894e-20 -.000790009648799193 .01980039388692535 -3
10623664489067e-20 -.000790001222624801 .0198000499108861 1105723024308502e-21 -
.000790026987869177 .01980110168924885 519491490140591e-20 -.000790111841175344
 .0198045651406262 1057490741786202e-20 -.000790347648132422 .01981418686952565
 186420833921117e-19 -.000791414086225041 .0198576428188177 3757774060649935e-20
 -.000795715214847972 .02003194895255105 753826980627131e-19 41 1 340 L-.0007957
15214847972 .02003194895255105 -753826980627128e-19 41 1 341 L-.0007957152148479
72 .02003194895255105 753826980627131e-19 16 344 237 0 ?136 349 343 338 0 0 1 38
 345 245 0 349 338 21 0 +22 350 351 352 353 40 7 346 0 1 7 590250130460761e-19 .
3279582857148575 ??-.000795654252792384 .02002949096879435 749826980630196e-19 -
.000797495058631945 .0202729709169109 .000135467028418243 -.000796767937912338 .
02028473439826945 .0001423798264661696 -.000795532050564941 .02029505949006855 .
000151356038975004 -.000794637666925247 .02029852344132155 .0001567013107462665
 -.000793684905079431 .0202999315060952 .000161740016862071 -.000793364111616472
 .02029999855859555 .0001633196038324915 41 1 347 L-.000795654252792384 .0200294
9096879435 749826980630196e-19 41 1 348 L-.000793364111616472 .02029999855859555
 .0001633196038324915 16 349 243 0 ?64 354 344 345 0 0 1 38 21 248 0 354 345 7 0
 +22 355 356 357 358 51 350 768 0 359 355 334 360 +-.000112774047094068 0 .00054
8527131782945 3469446951953615e-33 1 0 25e-5 -1 3469446951953615e-33 0 40 6 351
 0 1 6 305840620371491e-19 .3495246890507345 ??-.000163319603832491 .02029999855
859555 .000793364111616472 -.000158180589187035 .02029912463061 .000794369044269
73 -.0001522514786387705 .020295780299826 .000795390519916091 -.0001437306805012
12 .0202866469886374 .000796603101695583 -.0001247298973342694 .0202481802175264
5 .000798241083427398 -749826980630193e-19 .02002949096879435 .00079565425279238
4 41 1 352 L-.000163319603832491 .02029999855859555 .000793364111616472 41 1 353
 L-749826980630193e-19 .02002949096879435 .000795654252792384 14 359 700 361 ?36
2 333 363 5 350 -0 0 362 333 28 51 355 769 0 362 23 350 364 -1579794370900085e-3
4 0 .00129 3469446951953615e-33 1 0 5e-4 -1 3469446951953615e-33 0 51 334 767 0
 365 350 327 0 +0 0 0 3469446951953615e-33 1 0 81e-5 -1 3469446951953615e-33 0 1
41 360 345 366 366 350 141 366 367 360 360 350 38 367 778 0 368 369 370 0 +6 350
 371 372 373 16 368 353 0 ?70 374 375 367 0 0 1 31 369 779 0 375 318 367 0 +6471
97599935325e-34 .01865420076738435 0 -3469446951953615e-33 -1 0 1 -3469446951953
615e-33 0 81e-5 38 370 777 0 374 367 376 0 +6 355 377 378 379 40 12 371 0 1 12 2
968569770635835e-20 .3267920020525015 ??-745430135338629e-19 .01928031346518205
 .000795586614646726 -.000123202493908226 .01878250382975285 .000798309532077771
 -.0001307138928283098 .01873905317054135 .000797882624874699 -.0001368986815760
53 .0187099371355259 .000797360413341323 -.0001420159565271712 .0186904135655554
 .000796811063512895 -.0001462814295952786 .01867731684171235 .00079627146639928
3 -.0001498759397247964 .0186685357291442 .0007957587025338 -.000153992211862566
 .0186610297539536 .000795105847192684 -.00015760200518101 .01865670314597555 .0
00794475203891176 -.000160008765684045 .01865499772455235 .000794024344326707 -.
0001622544486553375 .0186542625213941 .000793581594836315 -.0001637592883613395
 .0186542345705438 .000793272928831471 41 1 372 L-745430135338629e-19 .019280313
46518205 .000795586614646726 41 1 373 L-.0001637592883613395 .0186542345705438 .
000793272928831471 16 374 344 0 ?67 380 368 370 380 380 1 38 376 776 0 381 370 1
92 0 +6 23 382 383 384 40 17 377 -.0010339289997922 .999509593970653 17 55163334
9923304e-19 .3477463588075115 ??.000129759012651634 .01822482776758075 .00080713
0868002858 761345250433401e-19 .01925781138826535 .000795830460169361 2402260260
42579e-19 .0197460149920656 .000790577418846909 1612567158021725e-20 .0197756738
6848115 .000790260104938489 1037901819379406e-20 .0197899225154595 .000790107735
62563 620599783269308e-20 .0197963970035789 .000790038515892572 4217155628127385
e-21 .0197983362806632 .000790017784714432 1772841519433325e-21 .019799705977251
45 .000790003142976931 -713881360437336e-22 .0197999995232546 .00079000000509618
7 -190986518500379e-20 .01979965877053805 .000790003647598329 -414054948695702e-
20 .0197983961754669 .000790017144443666 -736434694713035e-20 .01979492648620425
 .00079005423654756 -1458044926832252e-20 .0197801125128973 .000790212634714188
 -32243992977292e-18 .01970274215623435 .000791040758260877 -662705346374543e-19
 .019389195128491 .000794411242824389 -761345251165059e-19 .0192578113882713 .00
0795830460169359 -.0001283448203240084 .01825899543766945 .000806753057837249 41
 1 378 L.000129759012651634 .01822482776758075 .000807130868002858 41 1 379 L-.0
001283448203238936 .0182589954376694 .000806753057837249 16 381 337 0 ?61 385 38
0 376 0 0 1 31 192 775 0 385 376 189 0 +647197599935325e-34 .01865420076738435 0
 -3469446951953615e-33 -1 0 1 -3469446951953615e-33 0 81e-5 51 23 770 0 229 386
 355 387 +.000112774047094068 0 .000548527131782945 3469446951953615e-33 1 0 25e
-5 -1 3469446951953615e-33 0 40 8 382 0 1 8 169520502792587e-19 .341951495325127
5 ??.0001637592883613405 .0186542345705438 .000793272928831471 .0001616141052887
77 .0186543876670772 .000793710020083776 .000159209089675688 .01865545931634495
 .000794176855618496 .000155947909043633 .0186584230132664 .000794770949257334 .
0001491880497292502 .01867005600248315 .000795860955616461 .0001326736493540532
 .01872917508626655 .000797733884961695 .0001002094394051652 .01897062043546695
 .00079821119341609 745430135338378e-19 .01928031346518205 .000795586614646731 4
1 1 383 L.0001637592883613405 .0186542345705438 .000793272928831471 41 1 384 L74
5430135338378e-19 .01928031346518205 .000795586614646731 14 229 692 388 ?226 389
 390 5 23 -0 0 226 389 28 51 386 771 0 389 0 23 0 +0 0 0 3469446951953615e-33 1
 0 81e-5 -1 3469446951953615e-33 0 141 387 7 391 391 23 141 391 376 387 387 23 1
4 389 688 392 ?229 235 393 5 386 -0 0 229 235 28 81 1 392 1180 394 389 395 0 388
 396 397 14 235 684 396 ?389 398 399 5 193 -0 0 389 398 28 15 393 691 0 52 389 0
 13 28 50 0 0 0 0 0 0 9 16 14 16 240 400 ?401 0 402 5 22 +401 223 401 0 28 81 1
 400 1182 394 16 403 0 396 404 405 14 401 223 404 ?170 16 406 5 22 +170 16 170 1
6 28 15 402 255 0 407 16 0 14 223 58 408 ?231 179 33 5 22 +16 170 231 179 28 81
 1 408 1184 394 223 409 0 404 410 411 14 231 676 410 ?160 223 412 5 212 -226 226
 160 223 28 14 179 63 413 ?223 414 161 5 224 +0 0 223 414 28 15 33 204 0 415 223
 0 14 170 206 416 ?18 401 166 5 22 +223 401 18 401 28 81 1 416 1187 394 170 417
 0 413 418 419 14 18 86 418 ?420 170 421 5 6 +0 0 420 170 28 81 1 418 1188 394 1
8 422 0 416 423 424 14 420 83 423 ?425 18 426 5 19 +0 0 425 18 28 15 421 320 0 4
27 18 428 17 427 0 421 429 430 123 47 187 0 0 -15 428 136 0 210 18 0 17 210 0 42
8 210 210 0 431 208 0 0 +17 431 0 432 431 431 0 210 208 0 0 -15 432 82 0 431 420
 0 17 429 0 421 433 427 11 125 239 0 0 -17 430 0 421 427 434 40 52 385 0 0 -17 4
7 0 399 128 435 40 427 187 0 436 +16 187 325 0 ?47 184 385 189 0 0 1 16 385 332
 0 ?52 187 381 192 0 0 1 17 52 0 393 437 436 48 430 385 0 438 +17 437 0 393 439
 52 129 438 440 0 441 +17 436 0 393 52 439 40 128 246 0 430 -17 438 0 390 61 29
 48 437 440 0 434 -15 390 695 0 61 229 0 17 61 0 390 442 438 59 434 381 0 443 +1
7 29 0 390 438 442 129 407 10 0 437 +16 440 438 0 ?437 246 444 445 0 0 1 17 434
 0 421 430 446 48 61 381 0 0 -17 446 0 421 434 447 59 55 380 0 0 -17 447 0 421 4
46 448 53 67 374 0 0 -17 55 0 449 58 443 53 446 380 0 450 +16 380 343 0 ?55 381
 374 370 374 374 1 15 449 583 0 55 398 0 17 58 0 449 443 55 56 451 30 0 442 +17
 443 0 449 55 58 59 442 444 0 446 -17 450 0 452 67 453 53 454 354 0 451 +15 452
 699 0 67 362 0 17 67 0 452 453 450 65 447 374 0 455 +17 453 0 452 450 67 62 455
 456 0 454 +17 454 0 402 457 451 62 450 354 0 0 -16 354 246 0 ?450 30 349 21 30
 30 1 17 451 0 402 454 407 53 58 30 0 447 -17 407 0 402 451 441 56 29 10 0 0 -16
 30 252 0 ?58 10 354 21 354 354 1 17 441 0 402 407 457 129 458 186 0 178 -17 457
 0 402 441 454 131 64 349 0 458 -17 458 0 161 459 178 131 441 186 0 0 +16 186 17
4 0 ?458 188 183 185 188 183 1 17 178 0 161 458 162 129 439 188 0 0 +17 162 0 16
1 178 158 126 460 184 0 0 +17 439 0 393 436 437 126 178 188 0 415 -17 415 0 33 4
60 34 126 122 176 0 162 -17 460 0 33 35 415 32 162 184 0 158 -17 34 0 33 415 31
 120 38 216 0 0 -17 122 0 399 435 128 120 415 176 0 461 +16 176 203 0 ?122 151 2
17 218 0 0 1 16 217 201 0 ?46 176 216 211 0 0 1 17 46 0 462 44 463 32 35 217 0 4
60 +16 216 199 0 ?38 217 37 209 37 37 1 17 38 0 230 125 461 11 34 216 0 464 +15
 230 747 0 125 226 0 17 125 0 230 461 38 123 429 239 0 435 +17 461 0 230 38 125
 120 435 247 0 34 +17 464 0 412 36 465 11 433 245 0 429 +15 412 679 0 464 231 0
 17 36 0 412 465 464 115 31 37 0 463 +17 465 0 412 464 36 117 463 466 0 433 -17
 433 0 421 467 429 117 464 245 0 0 -16 245 427 0 ?464 249 239 238 239 239 1 17 4
67 0 421 155 433 113 119 249 0 0 -17 155 0 421 153 467 110 43 254 0 0 -17 119 0
 462 463 44 117 467 249 0 465 +15 462 743 0 119 232 0 17 463 0 462 46 119 115 46
5 466 0 35 +17 44 0 462 119 46 113 39 45 0 467 -16 45 447 0 ?39 147 466 468 0 0
 1 16 466 432 0 ?463 45 247 248 0 0 1 30 468 792 0 45 157 248 0 +.00079340531561
4618 0 -.000163119603832491 3469446951953615e-33 1 0 30 157 793 0 147 469 468 0
 +.0001631196038324915 0 -.000793405315614618 3469446951953615e-33 1 0 30 248 79
1 0 466 468 240 0 +.000795684754521964 0 -751826980627121e-19 3469446951953615e-
33 1 0 30 469 794 0 156 470 157 0 +75182698062712e-18 0 -.000795684754521963 346
9446951953615e-33 1 0 16 156 445 0 ?152 471 147 469 0 0 1 30 470 795 0 471 472 4
69 0 +-751826980627119e-19 0 -.000795684754521963 3469446951953615e-33 1 0 16 47
1 404 0 ?473 474 156 470 0 0 1 30 472 796 0 474 475 470 0 +-.000163119603832491
 0 -.000793405315614618 3469446951953615e-33 1 0 16 474 444 0 ?476 477 471 472 0
 0 1 30 475 797 0 477 478 472 0 +-.000793405315614618 0 -.0001631196038324915 34
69446951953615e-33 1 0 16 477 443 0 ?139 479 474 475 0 0 1 30 478 798 0 479 480
 475 0 +-.000795684754521964 0 -75182698062712e-18 3469446951953615e-33 1 0 16 4
79 442 0 ?481 482 477 478 0 0 1 30 480 799 0 482 483 478 0 +-.000795684754521963
 0 751826980627122e-19 3469446951953615e-33 1 0 16 482 376 0 ?484 485 479 480 0
 0 1 30 483 800 0 485 486 480 0 +-.000793405315614618 0 .0001631196038324915 346
9446951953615e-33 1 0 16 485 441 0 ?487 488 482 483 0 0 1 30 486 801 0 488 489 4
83 0 +-.000163119603832491 0 .000793405315614618 3469446951953615e-33 1 0 16 488
 440 0 ?133 456 485 486 0 0 1 30 489 802 0 456 490 486 0 +-751826980627119e-19 0
 .000795684754521963 3469446951953615e-33 1 0 16 456 439 0 ?453 444 488 489 0 0
 1 30 490 803 0 444 445 489 0 +751826980627124e-19 0 .000795684754521963 3469446
951953615e-33 1 0 16 444 348 0 ?442 440 456 490 0 0 1 30 445 804 0 440 491 490 0
 +.0001631196038324915 0 .000793405315614618 3469446951953615e-33 1 0 30 491 805
 0 246 492 445 0 +.000793405315614618 0 .0001631196038324915 3469446951953615e-3
3 1 0 16 246 437 0 ?128 239 440 491 0 0 1 31 492 810 0 493 494 491 0 +7042977312
46584e-34 .0203 0 3469446951953615e-33 1 0 -1 3469446951953615e-33 0 81e-5 16 49
3 481 0 ?495 247 164 492 0 0 1 31 494 814 0 164 165 492 0 +704297731246584e-34 .
0203 0 3469446951953615e-33 1 0 -1 3469446951953615e-33 0 81e-5 16 164 469 0 ?18
2 493 159 494 0 0 1 31 165 818 0 159 0 494 0 +704297731246584e-34 .0203 0 346944
6951953615e-33 1 0 -1 3469446951953615e-33 0 81e-5 17 182 0 496 497 476 137 172
 164 0 498 +15 496 723 0 94 301 0 17 497 0 496 94 182 89 139 477 0 499 -17 476 0
 496 182 94 140 500 474 0 167 +17 498 0 406 501 502 137 85 290 0 181 -15 406 238
 0 503 401 0 17 501 0 406 503 498 134 181 183 0 459 -17 502 0 406 498 504 83 342
 337 0 0 -17 85 0 326 505 139 83 498 290 0 481 +16 290 226 0 ?85 337 285 286 0 0
 1 17 181 0 161 172 459 137 501 183 0 0 +17 459 0 161 181 458 134 495 493 0 0 -1
7 495 0 506 507 487 131 459 493 0 457 +15 506 707 0 73 365 0 17 507 0 506 73 495
 68 133 488 0 508 -17 487 0 506 495 73 134 509 485 0 501 +17 73 0 506 487 507 71
 508 375 0 509 +17 509 0 510 82 136 71 487 485 0 511 -15 510 711 0 82 333 0 17 8
2 0 510 484 509 80 511 512 0 513 +17 136 0 510 509 484 134 503 344 0 487 +17 511
 0 421 508 514 71 82 512 0 0 -17 508 0 421 448 511 68 73 375 0 0 -17 514 0 421 5
11 515 80 76 516 0 0 -16 512 365 0 ?82 375 516 318 0 0 1 16 375 360 0 ?73 368 51
2 369 0 0 1 16 516 371 0 ?76 512 317 313 317 317 1 38 318 780 0 512 313 369 0 +6
 327 517 518 519 40 8 517 0 1 8 169520502792637e-19 .341951495325043 ??-.0007932
72928831471 .0186542345705438 .0001637592883613405 -.000793710020083776 .0186543
876670772 .0001616141052887775 -.000794176855618496 .01865545931634495 .00015920
90896756885 -.000794770949257334 .0186584230132664 .0001559479090436305 -.000795
860955616462 .01867005600248315 .000149188049729246 -.000797733884961696 .018729
17508626655 .000132673649354047 -.000798211193416089 .01897062043546705 .0001002
09439405151 -.000795586614646731 .01928031346518205 745430135338378e-19 41 1 518
 L-.000793272928831471 .0186542345705438 .0001637592883613405 41 1 519 L-.000795
586614646731 .01928031346518205 745430135338378e-19 17 76 0 520 79 513 74 514 51
6 0 342 +16 317 372 0 ?88 516 312 313 516 516 1 17 88 0 332 481 342 86 515 317 0
 505 +15 332 715 0 88 325 0 17 481 0 332 342 88 83 505 479 0 502 +17 342 0 332 8
8 481 74 502 337 0 504 +17 515 0 421 514 521 74 88 317 0 0 -17 505 0 326 91 85 8
6 481 479 0 521 -15 326 719 0 91 300 0 17 91 0 326 139 505 89 521 312 0 497 +17
 521 0 421 515 499 86 91 312 0 0 -17 499 0 421 521 522 89 94 309 0 0 -17 522 0 4
21 499 523 92 103 304 0 0 -17 94 0 496 476 497 92 499 309 0 500 +17 500 0 302 10
3 142 92 476 474 0 522 -15 302 727 0 103 296 0 17 103 0 302 473 500 101 522 304
 0 524 +17 142 0 302 500 473 140 169 285 0 476 +17 473 0 302 142 103 98 524 471
 0 169 +17 169 0 166 173 167 98 142 285 0 0 -17 173 0 166 168 169 95 100 284 0 5
25 -17 100 0 526 524 97 98 173 284 0 473 +16 284 218 0 ?100 285 175 273 175 175
 1 17 525 0 421 523 153 95 109 261 0 0 -17 523 0 421 522 525 101 97 310 0 0 -17
 153 0 421 525 155 107 112 154 0 0 -17 109 0 527 152 174 107 525 261 0 149 +16 2
61 400 0 ?109 310 154 256 310 310 1 16 310 399 0 ?97 304 261 256 261 261 1 17 97
 0 526 100 524 95 523 310 0 174 +15 526 647 0 97 528 0 17 524 0 526 97 100 101 4
73 471 0 523 -17 174 0 527 109 152 95 168 175 0 173 +15 527 731 0 109 269 0 17 1
52 0 527 174 109 104 149 156 0 168 +17 149 0 145 112 106 107 152 156 0 153 -14 2
69 728 529 ?528 148 527 5 263 -528 528 528 148 28 81 1 529 1190 394 269 530 0 42
3 531 532 14 528 644 531 ?301 269 526 5 263 -269 269 301 269 28 81 1 531 1191 39
4 528 533 0 529 534 535 14 301 720 534 ?296 528 496 5 297 -0 0 296 528 28 81 1 5
34 1192 394 301 536 0 531 537 538 80 255 1 394 539 540 9000 1 1 1 1 1 1 1 1 0 FF
FFTFTFFFFFFF1 81 1 536 1097 541 301 0 534 533 542 543 81 1 537 1193 394 331 544
 0 534 545 546 82 255 1 538 2123694199 14 331 612 537 ?365 325 520 5 319 -325 32
5 365 325 28 81 1 544 1101 541 331 0 537 547 548 549 81 1 545 1194 394 365 548 0
 537 550 551 82 1 546 -2139094921 14 365 704 545 ?333 331 506 5 334 -0 0 333 331
 28 81 1 548 1102 541 365 0 545 544 552 553 81 1 550 1195 394 333 552 0 545 554
 555 82 1 551 2123169911 14 333 708 550 ?359 365 510 5 327 -0 0 359 365 28 81 1
 552 1103 541 333 0 550 548 556 557 81 1 554 1196 394 362 558 0 550 559 560 82 1
 555 2123300983 14 362 696 554 ?398 359 452 5 355 -398 398 398 359 28 81 1 558 1
105 541 362 0 554 556 561 562 81 1 559 1197 394 398 561 0 554 563 564 82 1 560 2
122907767 14 398 580 559 ?235 362 449 5 355 -362 362 235 362 28 81 1 561 1106 54
1 398 0 559 558 565 566 81 1 563 1198 394 232 567 0 559 568 569 82 1 564 -213286
9001 14 232 740 563 ?148 160 462 5 219 -0 0 148 160 28 81 1 567 1093 541 232 0 5
63 570 571 572 81 1 568 1199 394 160 570 0 563 573 574 82 1 569 2124349559 14 16
0 736 568 ?232 231 41 5 233 -0 0 232 231 28 81 1 570 1092 541 160 0 568 575 567
 576 81 1 573 1200 394 414 577 0 568 578 579 82 1 574 2124218487 14 414 68 573 ?
179 580 581 5 582 +0 0 179 580 28 81 1 577 1088 541 414 0 573 583 584 585 81 1 5
78 1201 394 580 583 0 573 586 587 82 1 579 -632815500 14 580 73 578 ?414 425 588
 5 589 +0 0 414 425 28 81 1 583 1087 541 580 0 578 590 577 591 81 1 586 1202 394
 425 590 0 578 0 592 82 1 587 -632225676 14 425 78 586 ?580 420 593 5 594 +0 0 5
80 420 28 81 1 590 1086 541 425 0 586 595 583 596 82 1 592 -631635852 80 1 541 0
 597 8001 0 0 0 0 3 5 0 0 0 FFFFTFTFFFFFFF2 81 1 595 1085 541 420 0 423 422 590
 598 83 255 3 596 .792156862745098 .819607843137255 .933333333333333 81 1 423 11
89 394 420 595 0 418 529 599 81 1 422 1084 541 18 0 418 417 595 600 83 3 598 .79
2156862745098 .819607843137255 .933333333333333 81 1 417 1083 541 170 0 416 601
 422 602 83 3 600 .792156862745098 .819607843137255 .933333333333333 81 1 601 10
82 541 401 0 404 403 417 603 83 3 602 .792156862745098 .819607843137255 .9333333
33333333 81 1 404 1183 394 401 601 0 400 408 604 81 1 403 1081 541 16 0 400 0 60
1 605 83 3 603 .792156862745098 .819607843137255 .933333333333333 83 3 605 .7921
56862745098 .819607843137255 .933333333333333 82 1 604 2137587831 82 1 599 -6310
46028 79 255 15 597 SDL/TYSA_COLOUR15 593 134 0 204 425 606 51 594 92 0 425 589
 19 0 +0 0 0 -3469446951953615e-33 -1 0 .004 1 -3469446951953615e-33 0 50 255 58
9 91 0 580 582 594 0 +.004 .005 0 3469446951953615e-33 1 0 -1 3469446951953615e-
33 0 50 19 93 0 420 594 6 0 +.001135610285578574 496892408195335e-35 0 -34694469
51953615e-33 -1 0 1 -3469446951953615e-33 0 51 582 90 0 414 224 589 0 +0 0 0 -34
69446951953615e-33 -1 0 .0025 1 -3469446951953615e-33 0 50 224 89 0 179 22 582 0
 +.0025 .0203 0 3469446951953615e-33 1 0 -1 3469446951953615e-33 0 17 204 0 593
 204 204 0 607 202 0 0 +15 606 77 0 608 425 0 17 608 0 606 608 608 0 207 205 0 0
 -17 207 0 426 207 207 0 608 205 0 0 +15 426 135 0 207 420 432 17 607 0 609 607
 607 0 204 202 0 0 -15 609 72 0 607 580 0 83 3 591 .792156862745098 .81960784313
7255 .933333333333333 15 588 133 0 201 580 609 17 201 0 588 201 201 0 610 199 0
 0 +17 610 0 611 610 610 0 201 199 0 0 -15 611 67 0 610 414 0 81 1 584 1089 541
 179 0 413 577 409 612 83 3 585 .792156862745098 .819607843137255 .9333333333333
33 81 1 413 1186 394 179 584 0 410 416 613 81 1 409 1090 541 223 0 408 584 575 6
14 83 3 612 .792156862745098 .819607843137255 .933333333333333 81 1 575 1091 541
 231 0 410 409 570 615 83 3 614 .792156862745098 .819607843137255 .9333333333333
33 81 1 410 1185 394 231 575 0 408 413 616 83 3 615 .792156862745098 .8196078431
37255 .933333333333333 82 1 616 2143420535 82 1 613 -633405321 15 581 132 0 198
 414 611 17 198 0 581 198 198 0 617 191 0 0 +17 617 0 180 617 617 0 198 191 0 0
 -15 180 62 0 617 179 0 83 3 576 .792156862745098 .819607843137255 .933333333333
333 81 1 571 1094 541 148 0 268 567 530 618 83 3 572 .792156862745098 .819607843
137255 .933333333333333 81 1 268 1174 394 148 571 0 228 299 619 81 1 530 1095 54
1 269 0 529 571 533 620 83 3 618 .792156862745098 .819607843137255 .933333333333
333 81 1 533 1096 541 528 0 531 530 536 621 83 3 620 .792156862745098 .819607843
137255 .933333333333333 83 3 621 .792156862745098 .819607843137255 .933333333333
333 81 1 228 1173 394 226 622 0 0 268 623 81 1 299 1175 394 296 542 0 268 324 62
4 82 1 619 2124087415 81 1 542 1098 541 296 0 299 536 625 626 81 1 324 1176 394
 300 625 0 299 330 627 82 1 624 2123825271 81 1 625 1099 541 300 0 324 542 547 6
28 81 1 330 1177 394 325 547 0 324 361 629 82 1 627 2123563127 81 1 547 1100 541
 325 0 330 625 544 630 81 1 361 1178 394 359 556 0 330 388 631 82 1 629 21234320
55 81 1 556 1104 541 359 0 361 552 558 632 81 1 388 1179 394 229 633 0 361 392 6
34 82 1 631 2123038839 81 1 633 1109 541 229 0 388 395 622 635 82 1 634 21227766
95 81 1 395 1108 541 389 0 392 565 633 636 81 1 622 1110 541 226 0 228 633 0 637
 83 3 635 .792156862745098 .819607843137255 .933333333333333 83 3 637 .792156862
745098 .819607843137255 .933333333333333 81 1 565 1107 541 235 0 396 561 395 638
 83 3 636 .792156862745098 .819607843137255 .933333333333333 81 1 396 1181 394 2
35 565 0 392 400 639 83 3 638 .792156862745098 .819607843137255 .933333333333333
 82 1 639 2124611703 83 3 632 .792156862745098 .819607843137255 .933333333333333
 83 3 630 .792156862745098 .819607843137255 .933333333333333 83 3 628 .792156862
745098 .819607843137255 .933333333333333 83 3 626 .792156862745098 .819607843137
255 .933333333333333 82 1 623 2124480631 83 3 566 .792156862745098 .819607843137
255 .933333333333333 83 3 562 .792156862745098 .819607843137255 .933333333333333
 83 3 557 .792156862745098 .819607843137255 .933333333333333 83 3 553 .792156862
745098 .819607843137255 .933333333333333 83 3 549 .792156862745098 .819607843137
255 .933333333333333 15 520 615 0 76 331 0 83 3 543 .792156862745098 .8196078431
37255 .933333333333333 79 14 540 SWEntUnchanged82 1 535 -2145320841 82 1 532 212
3956343 17 139 0 326 85 91 137 497 477 0 182 +17 504 0 406 502 503 74 79 343 0 5
15 -17 503 0 406 504 501 77 136 344 0 0 -17 79 0 520 513 76 77 504 343 0 484 +16
 343 235 0 ?79 344 337 291 337 337 1 17 513 0 520 76 79 80 484 482 0 514 -17 484
 0 510 136 82 77 513 482 0 503 +17 448 0 421 447 508 65 70 368 0 0 -17 70 0 363
 133 455 68 448 368 0 507 +15 363 703 0 70 359 0 17 133 0 363 64 70 131 507 488
 0 495 +17 455 0 363 70 64 65 453 456 0 448 -17 64 0 363 455 133 62 457 349 0 45
3 +16 247 436 0 ?461 466 493 240 0 0 1 17 128 0 399 122 47 126 436 246 0 439 +15
 399 687 0 47 235 0 17 442 0 390 29 61 56 443 444 0 407 +17 35 0 33 31 460 115 4
6 217 0 0 -17 43 0 41 39 146 113 155 254 0 44 +17 435 0 399 47 122 123 461 247 0
 427 -82 1 424 -630718345 82 1 419 2135949431 82 1 411 -633995145 82 1 405 21392
26231 82 1 397 2122645623 141 364 21 640 640 355 141 640 370 364 364 355 40 13 3
56 0 1 13 1807748024195725e-20 .3731024541161545 ??-753826980627119e-19 .0200319
4895255105 .000795715214847972 -517201658745753e-19 .0199091917878542 .000792682
169591799 -3465416818636655e-20 .0198490227213145 .000791202357035118 -222782747
8391275e-20 .01982026090047625 .000790496568107225 -133907981501872e-19 .0198073
2003193825 .000790179345639955 -877006302686308e-20 .0198031398358463 .000790076
919922169 -3106236644889215e-21 .01980039388692535 .000790009648799193 110572302
4310722e-21 .0198000499108861 .000790001222624802 519491490140802e-20 .019801101
68924885 .000790026987869177 1057490741786542e-20 .0198045651406262 .00079011184
1175344 186420833921196e-19 .01981418686952565 .000790347648132422 3757774060651
665e-20 .0198576428188178 .000791414086225043 753826980627125e-19 .0200319489525
5105 .000795715214847972 41 1 357 L-753826980627119e-19 .02003194895255105 .0007
95715214847972 41 1 358 L753826980627125e-19 .02003194895255105 .000795715214847
972 141 335 338 641 641 327 141 641 318 335 335 327 40 17 320 -.0010339289998108
4 .999509593970657 17 551633349923491e-19 .34774635880658 ??-.000807130868003063
 .01822482776756215 .0001297590126524004 -.000795830460169361 .0192578113882654
 761345250433395e-19 -.000790577418846908 .01974601499206565 2402260260425315e-2
0 -.000790260104938489 .0197756738684812 1612567158021115e-20 -.0007901077356256
29 .01978992251545955 1037901819377964e-20 -.000790038515892572 .019796397003578
95 62059978326824e-19 -.000790017784714432 .0197983362806632 4217155628110555e-2
1 -.000790003142976931 .01979970597725145 1772841519427315e-21 -.000790000005096
187 .0197999995232546 -713881360494038e-22 -.000790003647598329 .019799658770538
05 -1909865185007955e-21 -.000790017144443666 .0197983961754669 -414054948695812
5e-21 -.00079005423654756 .01979492648620425 -736434694713038e-20 -.000790212634
714188 .0197801125128973 -1458044926832736e-20 -.000791040758260877 .01970274215
62343 -3224399297729485e-20 -.00079441124282439 .01938919512849095 -662705346374
581e-19 -.000795830460169359 .0192578113882713 -761345251165064e-19 -.0008067530
57837249 .01825899543766945 -.000128344820324008 41 1 321 L-.000807130868003063
 .01822482776756215 .0001297590126524004 41 1 322 L-.000806753057837249 .0182589
9543766945 -.0001283448203238934 40 6 293 0 1 6 305840620371599e-19 .34952468905
0735 ??-.000793364111616472 .02029999855859555 -.0001633196038324915 -.000794369
044269729 .02029912463061 -.0001581805891870355 -.000795390519916091 .0202957802
99826 -.000152251478638772 -.000796603101695582 .0202866469886374 -.000143730680
5012136 -.000798241083427398 .02024818021752645 -.0001247298973342754 -.00079565
4252792384 .02002949096879435 -749826980630191e-19 41 1 294 L-.00079336411161647
2 .02029999855859555 -.0001633196038324915 41 1 295 L-.000795654252792384 .02002
949096879435 -749826980630191e-19 40 6 277 0 1 6 305840620371481e-19 .3495246890
50735 ??.000793364111616472 .02029999855859555 .0001633196038324915 .00079436904
426973 .02029912463061 .000158180589187035 .000795390519916091 .020295780299826
 .0001522514786387705 .000796603101695583 .0202866469886374 .0001437306805012114
 .000798241083427398 .02024818021752645 .0001247298973342682 .000795654252792384
 .02002949096879435 749826980630197e-19 41 1 278 L.000793364111616472 .020299998
55859555 .0001633196038324915 41 1 279 L.000795654252792384 .02002949096879435 7
49826980630197e-19 141 271 273 642 642 263 141 642 256 271 271 263 40 17 264 -.0
01033928999780574 .999509593970651 17 551633349922724e-19 .3477463588073775 ??-.
000129759012651155 .0182248277675924 -.000807130868002729 -76134525043339e-18 .0
192578113882654 -.000795830460169361 -240226026042708e-19 .01974601499206555 -.0
00790577418846909 -161256715802378e-19 .0197756738684811 -.00079026010493849 -10
37901819382156e-20 .01978992251545945 -.00079010773562563 -620599783273704e-20 .
01979639700357885 -.000790038515892573 -4217155628159635e-21 .01979833628066315
 -.000790017784714432 -177284151945608e-20 .01979970597725145 -.0007900031429769
31 713881360218517e-22 .0197999995232546 -.000790000005096187 190986518498539e-2
0 .01979965877053805 -.000790003647598329 4140549486931525e-21 .0197983961754669
5 -.000790017144443666 736434694708456e-20 .0197949264862043 -.00079005423654756
 1458044926821844e-20 .0197801125128976 -.000790212634714185 3224399297703335e-2
0 .0197027421562359 -.00079104075826086 66270534636918e-18 .01938919512849765 -.
000794411242824318 761345251165065e-19 .01925781138827125 -.000795830460169359 .
0001283448203240082 .01825899543766945 -.000806753057837249 41 1 265 L-.00012975
9012651155 .0182248277675924 -.000807130868002729 41 1 266 L.0001283448203238934
 .01825899543766945 -.000806753057837249 141 236 218 643 643 193 141 643 189 236
 236 193 141 234 211 644 644 219 141 644 241 234 234 219 141 225 209 645 646 22
 141 645 7 647 225 22 141 646 211 225 648 22 141 648 218 646 649 22 141 649 177
 648 650 22 141 650 273 649 651 22 141 651 280 650 652 22 141 652 286 651 653 22
 141 653 291 652 654 22 141 654 338 653 655 22 141 655 345 654 647 22 141 647 21
 655 645 22 40 7 220 0 1 7 590250130460814e-19 .327958285714823 ??.0007956542527
92384 .02002949096879435 -749826980630197e-19 .000797495058631945 .0202729709169
109 -.000135467028418245 .000796767937912337 .02028473439826945 -.00014237982646
61732 .00079553205056494 .02029505949006855 -.000151356038975011 .00079463766692
5246 .02029852344132155 -.0001567013107462725 .000793684905079431 .0202999315060
952 -.0001617400168620755 .000793364111616472 .02029999855859555 -.0001633196038
324915 41 1 221 L.000795654252792384 .02002949096879435 -749826980630197e-19 41
 1 222 L.000793364111616472 .02029999855859555 -.0001633196038324915 40 12 194 0
 1 12 2968569770635965e-20 .326792002051863 ??.000795586614646726 .0192803134651
8205 745430135338635e-19 .000798309532077771 .01878250382975285 .000123202493908
2276 .0007978826248747 .0187390531705414 .000130713892828293 .000797360413341324
 .01870993713552595 .0001368986815760428 .000796811063512896 .0186904135655554 .
000142015956527163 .000796271466399284 .0186773168417124 .0001462814295952684 .0
00795758702533802 .01866853572914425 .0001498759397247852 .000795105847192686 .0
186610297539536 .000153992211862554 .000794475203891177 .01865670314597555 .0001
576020051810055 .000794024344326708 .01865499772455235 .0001600087656840395 .000
793581594836317 .01865426252139415 .0001622544486553295 .000793272928831471 .018
6542345705438 .0001637592883613395 41 1 195 L.000795586614646726 .01928031346518
205 745430135338635e-19 41 1 196 L.000793272928831471 .0186542345705438 .0001637
592883613395 19 17 46 0 1 0 9 5 S0 40 7 24 0 1 7 590250130460807e-19 .3279582857
14793 ??7498269806302e-17 .02002949096879435 .000795654252792384 .00013546702841
82448 .0202729709169109 .000797495058631945 .0001423798264661714 .02028473439826
945 .000796767937912337 .0001513560389750015 .02029505949006855 .000795532050564
942 .0001567013107462625 .02029852344132155 .000794637666925248 .000161740016862
0665 .0202999315060952 .000793684905079432 .0001633196038324915 .020299998558595
55 .000793364111616472 41 1 25 L7498269806302e-17 .02002949096879435 .0007956542
52792384 41 1 26 L.0001633196038324915 .02029999855859555 .000793364111616472 14
1 20 238 656 657 6 141 656 189 658 20 6 141 657 241 20 659 6 141 659 255 657 660
 6 141 660 256 659 661 6 141 661 262 660 662 6 141 662 311 661 663 6 141 663 313
 662 664 6 141 664 318 663 665 6 141 665 367 664 666 6 141 666 370 665 658 6 141
 658 376 666 656 6 74 4 CI16 index_map_offset0 0 1 dCCZ20 15 4 0 0 586 13 2 622
 0 0 0 0 0 0 0 0 0 0 0 0 0 0 0 0 81 3 13 1049 667 1 0 2 0 0 668 669 670 80 3 667
 671 672 9000 0 1 0 0 1 1 1 1 0 FFTFFFFFFFFFFF1 1 1 82 1 668 14604782 82 1 669 1
14 82 27 670 14712706 14712681 14712656 14604904 14604890 14604872 14604854 1471
2770 14712477 14712479 14712475 14712473 14712865 14712469 14712471 14712467 147
12465 14712960 14712461 14712463 14712459 14712457 14713055 14712483 14712453 14
712455 14712481 79 13 672 TempAxisFaces80 2 12 673 674 8004 0 0 0 0 3 5 0 0 0 FF
TFFFFFFFFFFF2 3 83 1 14 1e3 79 16 674 SDL/TYSA_DENSITY1 0 
